Coordinates
version=1
nRows=9
nColumns=24
inDegrees=yes

Units are S.I. units (second, meters, Newtons, ...)
Angles are in degrees.

endheader
time	pelvis_tilt	pelvis_list	pelvis_rotation	pelvis_tx	pelvis_ty	pelvis_tz	hip_flexion_r	hip_adduction_r	hip_rotation_r	knee_angle_r	ankle_angle_r	subtalar_angle_r	mtp_angle_r	hip_flexion_l	hip_adduction_l	hip_rotation_l	knee_angle_l	ankle_angle_l	subtalar_angle_l	mtp_angle_l	lumbar_extension	lumbar_bending	lumbar_rotation
      7.35000000	      5.63876861	     -0.03700288	      5.68193495	     -0.01042917	      0.75582653	      0.17155091	     20.06366839	     -0.19506673	     -3.18190096	    -52.51709722	     -0.98205955	    -28.72832260	      0.00000000	     -7.09125065	      3.20844590	     10.08273633	     -6.74678581	     11.80399391	    -14.81183088	      0.00000000	    -25.13963621	     -0.23736096	     -7.80131124
      7.36000000	      5.70540656	      0.03727031	      6.12904152	     -0.00146592	      0.75563789	      0.17183714	     20.26322230	     -0.36016949	     -3.35094329	    -49.31120783	     -1.02965921	    -30.61100207	      0.00000000	     -7.82168359	      3.12740291	     10.31608939	     -6.88026255	     12.24717560	    -14.71867198	      0.00000000	    -25.46411254	     -0.30935929	     -8.05451885
      7.37000000	      5.73720235	      0.17891064	      6.56155548	      0.00766921	      0.75524012	      0.17220123	     20.33492948	     -0.60542929	     -3.46888473	    -45.83727704	     -0.88136720	    -31.79741926	      0.00000000	     -8.55969787	      3.10073650	     10.50541773	     -6.96828577	     12.70314576	    -14.63261026	      0.00000000	    -25.70337450	     -0.45831031	     -8.38150772
      7.38000000	      5.68955162	      0.40495720	      6.99565468	      0.01695030	      0.75458234	      0.17261784	     20.33717117	     -0.93601749	     -3.48843728	    -42.14070822	     -0.52014273	    -32.21201492	      0.00000000	     -9.24196647	      3.15931155	     10.78148029	     -7.05581318	     13.15149832	    -14.55911823	      0.00000000	    -25.81316477	     -0.69973053	     -8.79882118
      7.39000000	      5.69831692	      0.64436613	      7.37529416	      0.02647036	      0.75382891	      0.17315543	     20.09641061	     -1.21665194	     -3.30864345	    -38.18401902	     -0.13906136	    -32.11385784	      0.00000000	    -10.06804270	      3.19735145	     10.96615196	     -7.03188676	     13.55362421	    -14.48914716	      0.00000000	    -25.92391203	     -0.95957596	     -9.18048384
      7.40000000	      5.72261167	      0.95746705	      7.70061750	      0.03623267	      0.75290881	      0.17377988	     19.70680308	     -1.55682854	     -2.99160799	    -34.09602001	      0.64873605	    -30.97317283	      0.00000000	    -10.98778691	      3.28836956	     11.10320469	     -6.92971689	     13.87466048	    -14.39247554	      0.00000000	    -25.99416064	     -1.30740620	     -9.58451635
      7.41000000	      5.71986701	      1.33335824	      8.01417575	      0.04622376	      0.75177714	      0.17444548	     19.22768269	     -1.96497276	     -2.55729269	    -29.93040599	      1.51659787	    -29.07981336	      0.00000000	    -11.93696092	      3.42519868	     11.33256547	     -6.78564263	     14.18018812	    -14.32389005	      0.00000000	    -25.96436591	     -1.72689444	    -10.07818762
      7.42000000	      5.73015437	      1.75828668	      8.30993876	      0.05645404	      0.75048452	      0.17513476	     18.62639423	     -2.41144446	     -1.92991640	    -25.73521420	      2.28784714	    -26.73271138	      0.00000000	    -12.95268805	      3.58839981	     11.59965027	     -6.60613832	     14.45691051	    -14.24060218	      0.00000000	    -25.88804278	     -2.18088594	    -10.62086616
      7.43000000	      5.77641052	      2.25525417	      8.56765994	      0.06691770	      0.74905681	      0.17587593	     17.91029907	     -2.92534819	     -1.08716240	    -21.59572146	      2.89907116	    -24.07322643	      0.00000000	    -14.04172002	      3.80619039	     11.89558123	     -6.43313402	     14.75168678	    -14.12768725	      0.00000000	    -25.80145528	     -2.71924885	    -11.18814370
